{"asset":{"version":"2.0","generator":"Unity 2020.3.24f1 glTFast 5.2.0"},"nodes":[{"name":"Load","mesh":0,"translation":[0,0,-0.83],"scale":[0.0252718274,0.0252718218,0.0252718255]},{"name":"ACFT","mesh":1,"translation":[0,0,-0.83],"scale":[0.025270341,0.0252704546,0.0253121369]},{"name":"WT","mesh":2,"translation":[0,0,-0.83],"scale":[0.025270341,0.0252704546,0.0253121369]},{"name":"TGHT","mesh":3,"translation":[0,0,-0.83],"scale":[0.025270341,0.0252704546,0.0253121369]},{"name":"LoadHighlight","mesh":4,"translation":[0.002,0.36,-0.73],"scale":[0.9,0.12,0.01]},{"name":"ACFTHighlight","mesh":4,"translation":[0.002,0.146,-0.73],"scale":[0.9,0.12,0.01]},{"name":"WTHighlight","mesh":4,"translation":[0.002,-0.065,-0.73],"scale":[0.9,0.12,0.01]},{"name":"TGHTHighlight","mesh":4,"translation":[0.002,-0.271,-0.73],"scale":[0.9,0.12,0.01]},{"name":"Directional Light","children":[9]},{"name":"Directional Light_Orientation","rotation":[0,-1,0,-4.371139E-08],"extensions":{"KHR_lights_punctual":{"light":0}}},{"name":"Placard","children":[0,1,2,3,4,5,6,7,8],"mesh":4,"translation":[4.02924779E-05,-7.51013649E-05,0],"scale":[2.5,3,0.1]}],"extensionsRequired":["KHR_lights_punctual"],"extensionsUsed":["KHR_lights_punctual"],"buffers":[{"uri":"Placard.bin","byteLength":14520}],"bufferViews":[{"buffer":0,"byteLength":180},{"buffer":0,"byteLength":156,"byteOffset":180},{"buffer":0,"byteLength":168,"byteOffset":336},{"buffer":0,"byteLength":120,"byteOffset":504},{"buffer":0,"byteLength":72,"byteOffset":624},{"buffer":0,"byteLength":3120,"byteOffset":696,"byteStride":60},{"buffer":0,"byteLength":3360,"byteOffset":3816,"byteStride":60},{"buffer":0,"byteLength":3600,"byteOffset":7176,"byteStride":60},{"buffer":0,"byteLength":2400,"byteOffset":10776,"byteStride":60},{"buffer":0,"byteLength":1344,"byteOffset":13176,"byteStride":56}],"accessors":[{"bufferView":7,"componentType":5126,"count":60,"type":"VEC3","max":[15.6523247,15.5049686,0],"min":[-14.5918617,12.1117382,0]},{"bufferView":7,"componentType":5126,"count":60,"type":"VEC3","byteOffset":12},{"bufferView":7,"componentType":5126,"count":60,"type":"VEC4","byteOffset":24},{"bufferView":7,"componentType":5121,"count":60,"type":"VEC4","byteOffset":40},{"bufferView":7,"componentType":5126,"count":60,"type":"VEC2","byteOffset":44},{"bufferView":7,"componentType":5126,"count":60,"type":"VEC2","byteOffset":52},{"bufferView":0,"componentType":5123,"count":90,"type":"SCALAR"},{"bufferView":5,"componentType":5126,"count":52,"type":"VEC3","max":[15.6523247,7.22567272,0],"min":[-8.248035,3.83244038,0]},{"bufferView":5,"componentType":5126,"count":52,"type":"VEC3","byteOffset":12},{"bufferView":5,"componentType":5126,"count":52,"type":"VEC4","byteOffset":24},{"bufferView":5,"componentType":5121,"count":52,"type":"VEC4","byteOffset":40},{"bufferView":5,"componentType":5126,"count":52,"type":"VEC2","byteOffset":44},{"bufferView":5,"componentType":5126,"count":52,"type":"VEC2","byteOffset":52},{"bufferView":1,"componentType":5123,"count":78,"type":"SCALAR"},{"bufferView":6,"componentType":5126,"count":56,"type":"VEC3","max":[15.6523247,-1.05362415,0],"min":[-11.0526886,-4.4468565,0]},{"bufferView":6,"componentType":5126,"count":56,"type":"VEC3","byteOffset":12},{"bufferView":6,"componentType":5126,"count":56,"type":"VEC4","byteOffset":24},{"bufferView":6,"componentType":5121,"count":56,"type":"VEC4","byteOffset":40},{"bufferView":6,"componentType":5126,"count":56,"type":"VEC2","byteOffset":44},{"bufferView":6,"componentType":5126,"count":56,"type":"VEC2","byteOffset":52},{"bufferView":2,"componentType":5123,"count":84,"type":"SCALAR"},{"bufferView":8,"componentType":5126,"count":40,"type":"VEC3","max":[11.3406982,0,0],"min":[-10.2991982,-11.9910612,0]},{"bufferView":8,"componentType":5126,"count":40,"type":"VEC3","byteOffset":12},{"bufferView":8,"componentType":5126,"count":40,"type":"VEC4","byteOffset":24},{"bufferView":8,"componentType":5121,"count":40,"type":"VEC4","byteOffset":40},{"bufferView":8,"componentType":5126,"count":40,"type":"VEC2","byteOffset":44},{"bufferView":8,"componentType":5126,"count":40,"type":"VEC2","byteOffset":52},{"bufferView":3,"componentType":5123,"count":60,"type":"SCALAR"},{"bufferView":9,"componentType":5126,"count":24,"type":"VEC3","max":[0.5,0.5,0.5],"min":[-0.5,-0.5,-0.5]},{"bufferView":9,"componentType":5126,"count":24,"type":"VEC3","byteOffset":12},{"bufferView":9,"componentType":5126,"count":24,"type":"VEC4","byteOffset":24},{"bufferView":9,"componentType":5126,"count":24,"type":"VEC2","byteOffset":40},{"bufferView":9,"componentType":5126,"count":24,"type":"VEC2","byteOffset":48},{"bufferView":4,"componentType":5123,"count":36,"type":"SCALAR"}],"images":[{"name":"LiberationSans SDF.png","uri":"LiberationSans SDF.png","mimeType":"image/png"}],"materials":[{"name":"LiberationSans SDF Material","pbrMetallicRoughness":{"metallicFactor":0,"baseColorTexture":{"index":0}},"alphaMode":"BLEND"},{"name":"Default-Material","pbrMetallicRoughness":{"metallicFactor":0,"roughnessFactor":0.5}}],"meshes":[{"name":"TextMeshPro Mesh","primitives":[{"attributes":{"POSITION":0,"NORMAL":1,"TANGENT":2,"TEXCOORD_0":4,"TEXCOORD_1":5,"COLOR_0":3},"indices":6,"material":0}]},{"name":"TextMeshPro Mesh","primitives":[{"attributes":{"POSITION":7,"NORMAL":8,"TANGENT":9,"TEXCOORD_0":11,"TEXCOORD_1":12,"COLOR_0":10},"indices":13,"material":0}]},{"name":"TextMeshPro Mesh","primitives":[{"attributes":{"POSITION":14,"NORMAL":15,"TANGENT":16,"TEXCOORD_0":18,"TEXCOORD_1":19,"COLOR_0":17},"indices":20,"material":0}]},{"name":"TextMeshPro Mesh","primitives":[{"attributes":{"POSITION":21,"NORMAL":22,"TANGENT":23,"TEXCOORD_0":25,"TEXCOORD_1":26,"COLOR_0":24},"indices":27,"material":0}]},{"name":"Cube","primitives":[{"attributes":{"POSITION":28,"NORMAL":29,"TANGENT":30,"TEXCOORD_0":31,"TEXCOORD_1":32},"indices":33,"material":1}]}],"scene":0,"scenes":[{"name":"Placard","nodes":[10]}],"textures":[{"source":0}],"extensions":{"KHR_lights_punctual":{"lights":[{"type":"directional","name":"Directional Light","intensity":3.14159274}]}}}